<?xml version="1.0" encoding="iso-8859-1"?>
<!-- Generator: Adobe Illustrator 16.0.0, SVG Export Plug-In . SVG Version: 6.00 Build 0)  -->
<!DOCTYPE svg PUBLIC "-//W3C//DTD SVG 1.1//EN" "http://www.w3.org/Graphics/SVG/1.1/DTD/svg11.dtd">
<svg version="1.1" id="Capa_1" xmlns="http://www.w3.org/2000/svg" xmlns:xlink="http://www.w3.org/1999/xlink" x="0px" y="0px"
	 width="48px" height="48px" viewBox="0 0 48 48" style="enable-background:new 0 0 48 48;" xml:space="preserve">
<g>
	<path fill="#f41d24" d="M28.011,15.032V6.189h12.536l4.043,4.421l-4.043,4.421L28.011,15.032L28.011,15.032z M7.326,18.316l-4.042,4.421
		l4.042,4.421h12.55v-8.842H7.326z M44.716,18.316H28.011h-1.592h-0.02v-3.284h0.02V6.189h-0.02V0h-4.926v6.189h-0.006H21.29h-1.415
		H3.284l2.905,4.421l-2.905,4.421h16.592h1.415h0.177h0.006v3.284h-0.006v8.842h0.006V48h4.925V27.158h0.02h1.592H44.59
		l-2.778-4.421L44.716,18.316z"/>
</g>
<g>
</g>
<g>
</g>
<g>
</g>
<g>
</g>
<g>
</g>
<g>
</g>
<g>
</g>
<g>
</g>
<g>
</g>
<g>
</g>
<g>
</g>
<g>
</g>
<g>
</g>
<g>
</g>
<g>
</g>
</svg>
