<?xml version="1.0" encoding="UTF-8" standalone="no"?>
<!-- Created with Inkscape (http://www.inkscape.org/) -->

<svg
   xmlns:dc="http://purl.org/dc/elements/1.1/"
   xmlns:cc="http://creativecommons.org/ns#"
   xmlns:rdf="http://www.w3.org/1999/02/22-rdf-syntax-ns#"
   xmlns:svg="http://www.w3.org/2000/svg"
   xmlns="http://www.w3.org/2000/svg"
   xmlns:sodipodi="http://sodipodi.sourceforge.net/DTD/sodipodi-0.dtd"
   xmlns:inkscape="http://www.inkscape.org/namespaces/inkscape"
   width="69"
   height="92"
   viewBox="0 0 69.000002 91.999997"
   id="svg4505"
   version="1.1"
   inkscape:version="0.92.3 (2405546, 2018-03-11)"
   sodipodi:docname="logo.svg">
  <defs
     id="defs4507" />
  <sodipodi:namedview
     id="base"
     pagecolor="#ffffff"
     bordercolor="#666666"
     borderopacity="1.0"
     inkscape:pageopacity="0.0"
     inkscape:pageshadow="2"
     inkscape:zoom="5.6"
     inkscape:cx="71.283298"
     inkscape:cy="35.7626"
     inkscape:document-units="px"
     inkscape:current-layer="layer1"
     showgrid="false"
     showborder="true"
     units="px"
     inkscape:showpageshadow="false"
     borderlayer="false"
     inkscape:window-width="1920"
     inkscape:window-height="995"
     inkscape:window-x="0"
     inkscape:window-y="0"
     inkscape:window-maximized="1" />
  <metadata
     id="metadata4510">
    <rdf:RDF>
      <cc:Work
         rdf:about="">
        <dc:format>image/svg+xml</dc:format>
        <dc:type
           rdf:resource="http://purl.org/dc/dcmitype/StillImage" />
        <dc:title />
      </cc:Work>
    </rdf:RDF>
  </metadata>
  <g
     inkscape:label="Layer 1"
     inkscape:groupmode="layer"
     id="layer1"
     transform="translate(0,-960.36223)">
    <path
       inkscape:connector-curvature="0"
       style="fill:#2a2957;fill-opacity:1"
       d="m 0,1052.3612 v -50.862 h 3.2 v 50.862 z"
       id="path9" />
    <path
       inkscape:connector-curvature="0"
       style="fill:#bbc2c9;fill-opacity:1"
       d="m 68.932,960.42123 v 91.92597 h -3.088 v -91.92597 z"
       id="path11" />
    <path
       inkscape:connector-curvature="0"
       style="fill:#bbc2c9;fill-opacity:1"
       d="m 0,960.17523 h 68.932 v 3.089 H 0 Z"
       id="path13" />
    <path
       inkscape:connector-curvature="0"
       style="fill:#2a2957;fill-opacity:1"
       d="M 32.859,1052.3612 H 0.01 v -3.2 h 32.849 z"
       id="path15" />
    <path
       style="fill:#000000;stroke-width:0.15237883"
       d="m 15.49434,1022.985 c -0.47507,-0.059 -0.49523,-0.089 -0.49523,-0.7374 0,-0.8138 0.247728,-0.8769 0.68772,-0.1749 0.398365,0.6354 1.284304,0.771 1.647691,0.2522 0.446275,-0.6371 0.208759,-1.0013 -1.419851,-2.1774 -0.750743,-0.5421 -1.013922,-1.0585 -0.857386,-1.6822 0.233688,-0.9311 1.319011,-1.4233 2.745376,-1.2451 l 0.853542,0.1066 v 0.5986 c 0,0.7065 -0.359621,0.8269 -0.638906,0.2139 -0.315883,-0.6932 -1.560179,-0.6991 -1.733605,-0.01 -0.137534,0.548 0.162909,0.9567 1.08653,1.478 1.042741,0.5884 1.285981,0.9322 1.285981,1.8174 0,1.3089 -1.040471,1.8219 -3.161862,1.5586 z m 4.076135,0.023 c 0,-0.048 0.102855,-0.19 0.228568,-0.3157 0.183327,-0.1832 0.228568,-0.6918 0.228568,-2.5687 0,-1.8769 -0.04522,-2.3852 -0.228568,-2.5686 -0.125713,-0.1257 -0.228568,-0.2678 -0.228568,-0.3157 0,-0.048 0.945784,-0.087 2.101746,-0.087 h 2.101751 l -0.01305,0.6468 c -0.01614,0.7992 -0.346982,0.9237 -0.71673,0.2695 -0.235004,-0.4157 -0.332378,-0.4592 -1.02856,-0.4592 h -0.768985 v 1.0666 1.0667 h 0.547597 c 0.419438,0 0.566242,-0.071 0.627289,-0.3047 0.0438,-0.1676 0.174548,-0.3047 0.29049,-0.3047 0.153921,0 0.210797,0.226 0.210797,0.838 0,0.612 -0.05688,0.8381 -0.210797,0.8381 -0.115942,0 -0.246661,-0.1371 -0.29049,-0.3048 -0.06105,-0.2334 -0.207851,-0.3047 -0.627289,-0.3047 h -0.547597 v 1.2269 1.2271 l 0.799994,-0.046 c 0.734264,-0.042 0.818767,-0.087 1.028554,-0.538 0.290621,-0.6255 0.762773,-0.6749 0.759815,-0.079 -0.0011,0.2304 -0.04341,0.5733 -0.09396,0.7619 -0.08948,0.3339 -0.145154,0.3428 -2.131218,0.3428 -1.12164,0 -2.039345,-0.038 -2.039345,-0.087 z m 5.028502,0 c 0,-0.048 0.102856,-0.19 0.228569,-0.3157 0.184081,-0.184 0.22857,-0.7018 0.22857,-2.6604 0,-2.0213 -0.03858,-2.4469 -0.22857,-2.5198 -0.581427,-0.2231 -0.102844,-0.3597 1.257124,-0.3589 2.480332,0 3.08567,0.3336 3.08567,1.6934 0,0.6216 -0.06706,0.7711 -0.527437,1.1752 l -0.527454,0.4632 0.451255,0.4831 c 0.248193,0.2657 0.451256,0.5763 0.451256,0.6902 0,0.1139 0.205714,0.4414 0.45714,0.7278 0.251427,0.2864 0.457133,0.5631 0.457133,0.6148 0,0.052 -0.359994,0.094 -0.799984,0.094 h -0.799992 l -0.609512,-1.1805 c -0.512314,-0.9923 -0.676345,-1.1883 -1.028563,-1.2288 -0.415542,-0.048 -0.419041,-0.041 -0.419041,0.8575 0,0.6192 0.07228,0.9658 0.22857,1.0954 0.424593,0.3525 0.232557,0.4572 -0.838082,0.4572 -0.586656,0 -1.066652,-0.038 -1.066652,-0.087 z m 3.047578,-3.1129 c 0.375596,-0.3755 0.413002,-1.4539 0.06758,-1.947 -0.176939,-0.2526 -0.389898,-0.3387 -0.838083,-0.3387 h -0.600881 v 1.2952 1.2953 h 0.533331 c 0.330157,0 0.649425,-0.1161 0.838082,-0.3048 z m 4.281881,2.1714 c -0.166315,-0.5657 -0.513315,-1.7445 -0.771122,-2.6196 -0.257808,-0.875 -0.570344,-1.7033 -0.694531,-1.8405 -0.124186,-0.1373 -0.22579,-0.2956 -0.22579,-0.3518 0,-0.056 0.514281,-0.1023 1.142843,-0.1023 1.180259,0 1.324461,0.062 0.886678,0.3822 -0.23697,0.1733 -0.21804,0.3321 0.252599,2.1185 0.279825,1.0621 0.558026,1.8768 0.618237,1.8104 0.178478,-0.1968 1.213875,-3.2357 1.213875,-3.5627 0,-0.1655 -0.102861,-0.3403 -0.22857,-0.3886 -0.500475,-0.192 -0.180711,-0.3598 0.685702,-0.3598 0.942715,0 1.113777,0.1069 0.642352,0.4013 -0.160652,0.1003 -0.67507,1.2677 -1.257125,2.8529 l -0.985202,2.6831 H 32.7196 c -0.472538,0 -0.498824,-0.032 -0.791164,-1.0258 z m 4.098955,0.9415 c 0,-0.048 0.102853,-0.19 0.228562,-0.3157 0.183328,-0.1832 0.22857,-0.6918 0.22857,-2.5687 0,-1.8769 -0.04525,-2.3852 -0.22857,-2.5686 -0.125709,-0.1257 -0.228562,-0.2678 -0.228562,-0.3157 0,-0.048 0.479988,-0.087 1.066653,-0.087 1.070631,0 1.262676,0.1047 0.838074,0.4571 -0.184885,0.1535 -0.228562,0.6339 -0.228562,2.5142 0,1.8805 0.04371,2.3608 0.228562,2.5143 0.424602,0.3524 0.232557,0.4572 -0.838074,0.4572 -0.586665,0 -1.066653,-0.039 -1.066653,-0.087 z m 4.784007,-0.069 c -1.769292,-0.5459 -2.177599,-3.5528 -0.685121,-5.0453 0.643172,-0.6432 1.512528,-0.8545 2.619907,-0.6367 0.656183,0.129 0.672649,0.1468 0.718439,0.7756 0.0396,0.5445 0.0026,0.6435 -0.239169,0.6435 -0.176391,0 -0.369565,-0.1898 -0.503991,-0.4952 -0.408811,-0.9288 -1.612344,-0.6657 -1.97451,0.4317 -0.111852,0.3389 -0.158488,1.0851 -0.119191,1.9071 0.05586,1.1674 0.114349,1.4033 0.43206,1.7415 0.54268,0.5777 1.358283,0.4844 1.672239,-0.1913 0.335897,-0.723 0.761893,-0.6659 0.761893,0.1019 0,0.3303 -0.05706,0.6358 -0.12671,0.6789 -0.265771,0.1642 -2.104017,0.2279 -2.555846,0.088 z m 3.444449,0.069 c 0,-0.048 0.102852,-0.19 0.228561,-0.3157 0.183329,-0.1832 0.228571,-0.6918 0.228571,-2.5687 0,-1.8769 -0.04525,-2.3852 -0.228571,-2.5686 -0.125709,-0.1257 -0.228561,-0.2678 -0.228561,-0.3157 0,-0.048 0.94895,-0.087 2.108773,-0.087 h 2.108774 l -0.03576,0.5714 c -0.05064,0.8091 -0.04773,0.8001 -0.258039,0.7991 -0.104751,0 -0.307275,-0.2063 -0.450041,-0.4572 -0.234489,-0.4121 -0.333886,-0.4562 -1.028562,-0.4562 h -0.768975 v 1.0666 1.0667 h 0.54759 c 0.419443,0 0.566238,-0.071 0.627288,-0.3047 0.04388,-0.1676 0.174552,-0.3047 0.290492,-0.3047 0.15392,0 0.210795,0.226 0.210795,0.838 0,0.612 -0.05688,0.8381 -0.210795,0.8381 -0.11594,0 -0.246662,-0.1371 -0.290492,-0.3048 -0.06108,-0.2334 -0.207845,-0.3047 -0.627288,-0.3047 h -0.54759 v 1.2269 1.2271 l 0.799983,-0.046 c 0.734264,-0.042 0.818768,-0.087 1.028562,-0.538 0.12843,-0.2764 0.345392,-0.4933 0.495232,-0.4952 0.286609,-0.01 0.329156,0.2556 0.171421,1.0442 l -0.09524,0.4762 h -2.038067 c -1.120936,0 -2.038066,-0.038 -2.038066,-0.087 z m 5.523728,-0.023 c -0.47507,-0.059 -0.495232,-0.089 -0.495232,-0.7374 0,-0.8138 0.247347,-0.8767 0.688859,-0.1749 0.262299,0.4168 0.397417,0.4893 0.912212,0.4893 0.504521,0 0.6365,-0.067 0.799222,-0.4067 0.28175,-0.5878 0.0026,-1.0809 -0.884129,-1.5637 -0.403602,-0.2196 -0.917019,-0.6171 -1.140936,-0.8832 -0.340122,-0.4042 -0.393542,-0.5851 -0.324588,-1.0992 0.04995,-0.3724 0.212386,-0.7206 0.411325,-0.8817 0.504111,-0.4082 1.484822,-0.6143 2.386683,-0.5017 l 0.808444,0.101 v 0.5986 c 0,0.7321 -0.263702,0.7827 -0.737796,0.1414 -0.588975,-0.7966 -1.77747,-0.4848 -1.670443,0.4383 0.03533,0.3047 0.299876,0.5666 1.113024,1.1015 1.177538,0.7747 1.515761,1.3482 1.279903,2.1707 -0.313306,1.0924 -1.232625,1.4453 -3.146548,1.2077 z m -8.439183,-9.2624 c -2.838178,-0.5654 -4.653089,-2.3133 -5.562323,-5.3569 -0.237022,-0.7934 -0.271572,-1.8871 -0.32056,-10.14617 l -0.05492,-9.25707 h -1.744725 -1.744726 v -0.90837 -0.90842 l 0.647612,-0.16083 c 1.096096,-0.27227 2.199155,-0.87439 2.625347,-1.43315 0.779112,-1.02149 1.316061,-3.03699 1.537198,-5.77 l 0.107874,-1.33334 h 3.407573 3.407564 v 3.5047 3.5047 h 4.038042 4.038033 v 1.75238 1.75233 h -4.04716 -4.047161 l 0.04996,8.6476 c 0.04987,8.62424 0.0509,8.65014 0.408058,9.66544 0.608657,1.7304 1.55517,2.3796 3.216152,2.2061 1.038083,-0.1085 2.110262,-0.5444 2.923718,-1.1887 0.327916,-0.2597 0.61787,-0.4467 0.644353,-0.4157 0.731791,0.8581 1.748532,2.3404 1.658484,2.4177 -1.177726,1.0115 -3.454371,2.438 -4.631387,2.9019 -1.827922,0.7205 -4.502925,0.9351 -6.557047,0.5258 z m -26.158078,-1.1604 0.04539,-0.9332 0.673511,-0.2627 c 0.831108,-0.3242 1.458492,-1.0048 1.718973,-1.8649 0.290626,-0.9595 0.287441,-19.44812 -0.0034,-20.26972 -0.276958,-0.78208 -0.914995,-1.33796 -1.961743,-1.7092 -0.641068,-0.22733 -0.879144,-0.3868 -0.865335,-0.57964 0.0105,-0.14632 0.0276,-0.5403 0.03811,-0.87557 l 0.01902,-0.60952 h 5.632727 5.63273 l 0.04345,11.92794 0.04337,11.92781 0.384689,0.7474 c 0.374578,0.7276 1.075378,1.262 1.958104,1.4928 0.285497,0.074 0.323836,0.1946 0.323836,1.0132 v 0.9285 h -6.864319 -6.864319 z m 2.86437,-34.95193 v -3.42856 h 3.961856 3.961849 v 3.42856 3.42848 H 22.00854 18.046684 Z"
       id="path4660"
       inkscape:connector-curvature="0" />
    <text
       xml:space="preserve"
       style="font-style:normal;font-weight:normal;font-size:28.87693596px;line-height:1.25;font-family:sans-serif;letter-spacing:0px;word-spacing:0px;fill:#bbc2c9;fill-opacity:1;stroke:none;stroke-width:0.72192335"
       x="6.9030275"
       y="1826.3304"
       id="text4664"
       transform="scale(1.7620082,0.56753425)"><tspan
         sodipodi:role="line"
         id="tspan4662"
         x="6.9030275"
         y="1826.3304"
         style="font-style:normal;font-variant:normal;font-weight:normal;font-stretch:normal;font-family:Uroob;-inkscape-font-specification:Uroob;fill:#bbc2c9;fill-opacity:1;stroke-width:0.72192335">UA</tspan></text>
  </g>
</svg>
